# xmcd
#
# Track frame offsets: 
#        187
#        10930
#        21115
#        31907
#        42492
#        51717
#        61717
#        73035
#        85710
#        98020
#        107457
#        121092
#
# Disc length: 1769 seconds
#
# Revision: 4
# Processed by: cddbd v1.5.2PL0 Copyright (c) Steve Scherf et al.
# Submitted via: ExactAudioCopyFreeDBPlugin 1.0
#
DISCID=9106e70c
DTITLE=Various Artist - Sweet Dreams Soundtrack
DYEAR=1985
DGENRE=Soundtrack
TTITLE0=Patsy Cline - San Antonio Rose
TTITLE1=Patsy Cline - Seven Lonely Days
TTITLE2=Patsy Cline - Your Cheatin' Heart
TTITLE3=Patsy Cline - Lovesick Blues
TTITLE4=Patsy Cline - Walking After Midnight
TTITLE5=Patsy Cline - Foolin' Round
TTITLE6=Patsy Cline - Half As Much
TTITLE7=Patsy Cline - I Fall to Pieces
TTITLE8=Patsy Cline - Crazy
TTITLE9=Patsy Cline - Blue Moon of Kentucky
TTITLE10=Patsy Cline - She's Got You
TTITLE11=Patsy Cline - Sweet Dreams
EXTD=YEAR: 1985 ID3G: 24
EXTT0=
EXTT1=
EXTT2=
EXTT3=
EXTT4=
EXTT5=
EXTT6=
EXTT7=
EXTT8=
EXTT9=
EXTT10=
EXTT11=
PLAYORDER=
